<?xml version="1.0" standalone="no"?>
<!DOCTYPE svg PUBLIC "-//W3C//DTD SVG 20010904//EN"
 "http://www.w3.org/TR/2001/REC-SVG-20010904/DTD/svg10.dtd">
<svg version="1.0" xmlns="http://www.w3.org/2000/svg"
 width="350.000000pt" height="384.000000pt" viewBox="0 0 350.000000 384.000000"
 preserveAspectRatio="xMidYMid meet">

<g transform="translate(0.000000,384.000000) scale(0.100000,-0.100000)"
fill="#000000" stroke="none">
<path d="M10 2703 c0 -1229 -1 -1202 58 -1413 179 -639 680 -1103 1337 -1242
96 -20 139 -23 330 -23 234 0 287 7 480 61 583 165 1055 658 1216 1269 60 227
59 208 59 1392 l0 1083 -1740 0 -1740 0 0 -1127z m3430 100 c0 -781 -3 -997
-15 -1118 -8 -82 -17 -159 -20 -170 -2 -11 -14 -60 -26 -110 -97 -421 -370
-814 -728 -1048 -186 -122 -355 -194 -576 -244 -111 -25 -136 -27 -335 -27
-185 0 -230 3 -325 23 -257 54 -467 146 -675 299 -124 90 -295 271 -381 402
-126 191 -183 319 -244 543 -52 194 -54 245 -55 1375 l0 1042 1690 0 1690 0 0
-967z"/>
<path d="M154 3677 c-3 -8 -3 -486 -1 -1063 3 -1017 4 -1052 24 -1144 45 -204
101 -350 204 -530 110 -194 321 -409 525 -538 28 -18 56 -32 62 -32 5 0 12 -3
14 -7 4 -11 155 -83 171 -83 7 0 17 -4 23 -8 5 -5 36 -17 69 -27 33 -10 71
-22 85 -26 14 -5 78 -18 143 -29 270 -46 594 -13 832 83 63 26 230 110 233
118 2 5 8 9 14 9 30 0 217 150 324 261 150 157 276 351 339 524 10 28 21 55
25 60 12 18 49 147 72 250 22 99 22 108 25 1139 3 840 1 1041 -9 1048 -7 4
-723 8 -1591 8 -1312 0 -1578 -2 -1583 -13z m867 -424 c210 -219 403 -419 427
-445 l45 -46 -78 -184 c-43 -101 -82 -187 -86 -192 -5 -5 -37 4 -76 22 -75 34
-180 61 -249 64 l-45 1 -385 398 -384 398 0 184 c0 101 3 187 7 190 3 4 104 7
224 7 l217 0 383 -397z m2287 -565 c1 -527 -2 -958 -6 -958 -5 0 -12 -52 -15
-116 -3 -64 -10 -121 -16 -127 -6 -6 -11 -22 -11 -36 0 -30 -36 -164 -55 -206
-7 -16 -26 -57 -40 -90 l-27 -60 -198 204 -197 205 36 24 c59 39 91 73 137
143 74 113 87 160 82 308 -3 127 -3 128 -45 213 -72 144 -148 213 -283 258
-119 38 -303 19 -430 -45 -28 -14 -55 -23 -59 -20 -5 3 -23 40 -41 83 -18 42
-52 122 -76 177 -24 55 -104 252 -177 438 l-134 339 -118 -299 c-65 -164 -121
-304 -125 -311 -4 -9 -138 122 -401 395 -217 224 -400 416 -408 426 -13 16 50
17 1295 15 l1309 -3 3 -957z m-2631 36 l242 -251 -60 -17 c-73 -20 -143 -55
-185 -93 -114 -103 -194 -304 -179 -448 19 -166 127 -331 268 -406 59 -31 59
-31 51 -8 -11 35 -8 147 5 196 17 61 69 124 131 158 46 25 65 30 120 29 74 -1
111 -17 171 -71 34 -31 79 -98 79 -118 0 -3 -9 -5 -20 -5 -18 0 -20 -7 -20
-88 l0 -87 -111 -110 c-107 -107 -110 -111 -105 -146 24 -155 187 -380 331
-456 141 -74 337 -109 467 -83 79 15 200 56 253 86 53 29 133 98 176 152 l34
42 210 -211 210 -210 -30 -26 c-95 -79 -321 -212 -405 -238 -14 -4 -29 -11
-35 -15 -39 -27 -266 -80 -345 -80 -27 0 -52 -4 -55 -10 -8 -13 -257 -13 -270
-1 -6 5 -37 11 -70 13 -76 5 -228 35 -280 55 -22 9 -49 19 -60 23 -11 4 -45
18 -75 33 -30 14 -76 35 -103 47 -46 22 -155 90 -210 133 -76 59 -118 99 -247
235 -70 74 -146 194 -211 330 -67 141 -66 140 -80 192 -6 25 -15 54 -19 65 -5
11 -11 31 -14 45 -2 14 -9 43 -15 65 -6 22 -11 57 -11 77 0 20 -4 40 -10 43
-7 4 -10 292 -10 833 l0 827 123 -125 c67 -69 231 -238 364 -376z m1193 151
c155 -407 220 -577 220 -582 0 -2 -22 -28 -49 -56 -57 -60 -113 -165 -135
-252 -9 -34 -21 -116 -27 -183 l-12 -123 -41 3 -41 3 -3 700 c-1 397 2 695 7
690 4 -6 41 -95 81 -200z m-150 -500 l0 -695 -40 0 c-24 0 -42 5 -45 13 -2 6
-6 56 -10 110 -11 180 -67 331 -159 434 -25 28 -46 57 -46 64 0 15 38 115 209
556 28 73 51 134 51 136 0 10 31 77 35 77 3 0 5 -313 5 -695z m-589 -11 c115
-34 218 -103 293 -197 92 -113 125 -208 133 -374 l6 -113 -80 0 -79 0 -13 49
c-38 150 -181 251 -338 238 -135 -10 -265 -109 -299 -225 -22 -78 -32 -102
-41 -102 -11 0 -68 86 -98 148 -36 75 -46 136 -34 218 23 167 142 309 304 360
57 18 182 17 246 -2z m1552 -23 c210 -106 303 -353 208 -552 -41 -87 -87 -150
-105 -143 -7 3 -19 30 -25 61 -15 77 -50 132 -113 181 -82 63 -119 76 -223 76
-76 1 -97 -3 -134 -22 -95 -51 -168 -146 -183 -237 -3 -18 -11 -20 -83 -20
l-80 0 3 95 c7 212 85 374 229 482 125 93 203 119 344 115 87 -2 103 -6 162
-36z m-161 -471 c62 -23 120 -75 150 -133 21 -43 39 -183 22 -176 -5 2 -76 73
-158 158 -127 132 -146 156 -130 162 32 13 61 10 116 -11z m-5 -175 c92 -97
170 -183 173 -193 3 -9 10 -17 17 -17 6 0 102 -94 212 -208 l201 -208 -14 -33
c-33 -79 -150 -241 -244 -337 l-98 -101 -210 215 -210 216 28 48 c16 26 40 85
55 131 l27 82 -114 115 -114 115 3 81 c3 75 1 81 -18 86 -26 7 -21 30 15 83
22 32 100 99 116 100 3 0 82 -79 175 -175z m-409 -92 l3 -33 -355 0 -356 0 0
35 0 35 353 -2 352 -3 3 -32z m-594 -130 c-15 -32 -33 -75 -42 -95 l-15 -38
-114 0 -114 0 83 95 83 94 72 1 73 0 -26 -57z m409 -55 l48 -112 -28 -40 c-16
-22 -51 -54 -78 -71 -41 -26 -58 -30 -114 -30 -54 0 -73 5 -106 27 -47 29
-105 92 -105 112 0 12 74 197 87 219 2 4 59 7 126 7 l123 0 47 -112z m266 23
c44 -49 81 -92 81 -95 0 -3 -49 -6 -109 -6 l-108 0 -42 90 c-22 50 -41 93 -41
95 0 3 31 5 69 5 l68 0 82 -89z m-693 -215 c26 -41 102 -97 157 -117 113 -41
223 -13 321 82 l60 59 143 0 143 0 0 -38 c0 -49 -37 -122 -99 -196 -152 -179
-409 -256 -639 -190 -77 22 -182 78 -237 126 -87 76 -165 209 -165 280 0 17
11 18 150 18 148 0 150 0 166 -24z"/>
</g>
</svg>
